<svg xmlns="http://www.w3.org/2000/svg" viewBox="0 0 32 32" fill="none">
  <rect width="32" height="32" rx="4" fill="#0A66C2"/>
  <path d="M8.5 13H11V22H8.5V13ZM9.75 8.5C10.44 8.5 11 9.06 11 9.75C11 10.44 10.44 11 9.75 11C9.06 11 8.5 10.44 8.5 9.75C8.5 9.06 9.06 8.5 9.75 8.5Z" fill="white"/>
  <path d="M12.5 13H15V14.2C15.45 13.5 16.35 12.8 17.7 12.8C20.6 12.8 21 14.7 21 17V22H18.5V17.6C18.5 16.3 18.2 15.5 17.2 15.5C16.2 15.5 15.7 16.2 15.5 16.9C15.45 17.1 15.5 17.4 15.5 17.6V22H13V13.1L12.5 13Z" fill="white"/>
</svg>